<?xml version="1.0" encoding="UTF-8" standalone="no"?>
<!-- Created with Inkscape (http://www.inkscape.org/) -->
<svg
   xmlns:dc="http://purl.org/dc/elements/1.1/"
   xmlns:cc="http://web.resource.org/cc/"
   xmlns:rdf="http://www.w3.org/1999/02/22-rdf-syntax-ns#"
   xmlns:svg="http://www.w3.org/2000/svg"
   xmlns="http://www.w3.org/2000/svg"
   xmlns:sodipodi="http://sodipodi.sourceforge.net/DTD/sodipodi-0.dtd"
   xmlns:inkscape="http://www.inkscape.org/namespaces/inkscape"
   id="svg2"
   sodipodi:version="0.32"
   inkscape:version="0.45.1"
   width="227"
   height="360"
   version="1.0"
   sodipodi:docbase="D:\Chris\Daten\Graphik\svg\Wikipedia\Nur vektorisiert"
   sodipodi:docname="Gojuryu.svg"
   inkscape:output_extension="org.inkscape.output.svg.inkscape">
  <metadata
     id="metadata7">
    <rdf:RDF>
      <cc:Work
         rdf:about="">
        <dc:format>image/svg+xml</dc:format>
        <dc:type
           rdf:resource="http://purl.org/dc/dcmitype/StillImage" />
      </cc:Work>
    </rdf:RDF>
  </metadata>
  <defs
     id="defs5" />
  <sodipodi:namedview
     inkscape:window-height="579"
     inkscape:window-width="801"
     inkscape:pageshadow="2"
     inkscape:pageopacity="0.0"
     guidetolerance="10.0"
     gridtolerance="10.0"
     objecttolerance="10.0"
     borderopacity="1.0"
     bordercolor="#666666"
     pagecolor="#ffffff"
     id="base"
     inkscape:zoom="1.0944444"
     inkscape:cx="113.5"
     inkscape:cy="180"
     inkscape:window-x="132"
     inkscape:window-y="132"
     inkscape:current-layer="svg2" />
  <path
     style="fill:#000000"
     d="M 85.247943,317.02541 C 84.561575,315.92636 84,314.03901 84,312.83129 C 84,311.62358 83.48616,306.62874 82.858133,301.73165 C 81.856952,293.92485 81.427457,292.69625 79.372156,291.7598 C 77.006958,290.68214 73.453742,286.21292 74.294066,285.3726 C 74.543695,285.12297 76.267151,285.77881 78.123968,286.83001 L 81.5,288.74129 L 86,283.5819 C 92.915719,275.6528 103.86501,266.83871 106.35579,267.19565 C 110.67669,267.81486 108.97492,270.78684 97.542551,282.58716 C 89.95957,290.4142 86.19492,295.01446 86.566074,296 C 88.644735,301.51954 90.903842,318 89.581787,318 C 89.351771,318 88.563345,318.23033 87.829731,318.51184 C 87.096117,318.79336 85.934312,318.12446 85.247943,317.02541 z M 149.28451,316.31146 C 147.8734,314.15784 147.45225,310.89817 147.16782,299.92835 C 146.93866,291.09067 147.18404,286.00429 147.85969,285.58671 C 149.63616,284.4888 151.29261,292.98337 151.09163,302.16069 C 150.9823,307.15291 151.33177,311.08701 151.91668,311.44851 C 153.45969,312.40214 160.47643,308.44801 162.3703,305.55761 C 164.27822,302.64574 165.52241,302.37955 167.58482,304.44196 C 169.52912,306.38626 170.8133,312.62068 169.04429,311.52738 C 168.34695,311.09639 167.48203,311.22005 167.12226,311.80218 C 166.14074,313.39032 155.07326,319 152.92151,319 C 151.89004,319 150.25339,317.79016 149.28451,316.31146 z M 104.6875,317.35417 C 103.45432,316.12099 103.96092,312.84487 105.9583,309.13615 C 110.17336,301.30964 111.76121,296.39281 113.66082,285.28504 C 114.70421,279.18392 118.24762,278.76176 118.03973,284.76334 C 117.82607,290.93167 117.43903,292.96163 116.25,294.15034 C 115.5625,294.83765 115,296.27321 115,297.34047 C 115,298.40773 114.15562,301.13023 113.12361,303.39047 C 112.09159,305.65071 110.40409,309.71265 109.37361,312.41701 C 107.54787,317.2084 106.08401,318.75068 104.6875,317.35417 z M 127.53074,312.13994 C 127.18524,310.5669 127.37448,305.51621 127.95128,300.91617 C 128.52808,296.31614 129,290.42972 129,287.83525 C 129,281.78305 130.59057,280.73341 131.38674,286.26021 C 132.07765,291.05625 131.36586,312.599 130.46853,314.05092 C 129.38117,315.81031 128.16282,315.01779 127.53074,312.13994 z M 147.61065,274.4678 C 146.81468,273.67182 145.8659,271.66594 145.50226,270.01029 C 144.82556,266.9293 143.63222,266.16803 142.45787,268.06817 C 142.09477,268.65567 141.20112,268.90742 140.47196,268.62761 C 139.74281,268.34781 138.63042,268.74039 138,269.5 C 137.36958,270.25961 136.30448,270.67033 135.63312,270.41271 C 134.96175,270.15508 131.29617,270.59752 127.48739,271.39591 C 120.06144,272.95252 119.53982,272.87718 118.01488,270.0278 C 117.25019,268.59896 117.72972,266.81275 120.0805,262.33349 C 121.76433,259.12507 124.02108,255.55926 125.0955,254.40947 L 127.049,252.31894 L 121.89168,252.1364 C 119.05516,252.036 116.33679,251.70815 115.85087,251.40783 C 113.83461,250.16172 116.45362,248.99901 121.30902,248.98469 C 128.67504,248.96296 129.13854,248.43677 129.22319,240 C 129.24802,237.525 129.46027,235.16128 129.69486,234.7473 C 130.2801,233.71448 134.05513,235.84652 136.08945,238.35879 C 137.55731,240.17153 137.59947,240.88377 136.43437,244.18603 C 135.61284,246.51447 135.47348,248.17459 136.06864,248.54242 C 137.11631,249.18991 149.42109,248.94147 152.25,248.2157 C 153.2125,247.96877 154,246.91922 154,245.88337 C 154,243.2017 155.16011,243.536 158.7425,247.25 C 163.62962,252.31666 165.21244,258.20806 161.11852,256.09375 C 160.22833,255.63401 155,255.18429 149.5,255.09436 C 137.3677,254.896 132.14137,254.47051 129.5,253.46614 C 127.85542,252.84079 127.72213,252.94505 128.75,254.05282 C 130.485,255.9227 130.31309,261.10799 128.42682,263.80101 C 126.85581,266.04395 126.85959,266.04625 131.17682,265.47128 C 142.62774,263.94625 142.24262,264.10281 141.52979,261.26267 C 140.95828,258.9856 141.07306,258.81574 142.42504,259.93779 C 143.27798,260.64566 144.97945,262.86175 146.20608,264.86242 C 147.43271,266.86309 149.23815,269.37235 150.21816,270.43856 C 151.19817,271.50477 152,272.91913 152,273.58157 C 152,275.49079 149.19915,276.05629 147.61065,274.4678 z M 89.896652,261.30639 C 89.285132,259.76287 88.383218,257.71861 87.892399,256.76357 C 86.700209,254.4438 86.754033,250 87.97432,250 C 89.384273,250 92.296414,255.96701 92.697677,259.67822 C 93.146731,263.83143 91.318153,264.89434 89.896652,261.30639 z M 92.448973,241.53212 C 90.604776,237.11833 90.545986,232 92.339485,232 C 93.99159,232 95.780184,235.77315 96.621193,241.03253 C 97.148842,244.33227 96.973065,245 95.576782,245 C 94.606293,245 93.286586,243.53681 92.448973,241.53212 z M 67.775429,216.4421 C 66.518292,215.18496 68.354538,212.19326 71.327913,210.65422 C 74.418639,209.05444 75.358604,208.53896 79.5,206.17261 C 80.6,205.54408 82.907565,204.39404 84.627923,203.61695 C 86.34828,202.83986 88.066552,201.70133 88.446304,201.08688 C 88.826056,200.47243 90.77904,199.28351 92.786268,198.44484 C 97.274757,196.56943 110.08759,186.95074 109.45682,185.93013 C 109.20457,185.52199 105.5111,185.1233 101.2491,185.04415 C 88.777704,184.81255 83.746704,184.20819 82.901158,182.84007 C 82.465331,182.13489 82.323937,181.34273 82.586949,181.07972 C 83.189341,180.47733 97.198939,179.82889 106.72292,179.96259 C 113.65392,180.05988 113.97152,179.96165 114.58133,177.53199 C 115.3706,174.38727 116.60072,174.27302 117.35404,177.27447 C 117.91677,179.51658 118.12821,179.54685 132.21245,179.40182 C 150.37957,179.21473 149.68439,179.28439 148.2,177.8 C 147.04608,176.64608 146.496,173 147.47583,173 C 149.14511,173 154.50758,177.30551 156.10034,179.92459 L 158.00057,183.04928 L 155.71663,183.91764 C 154.46046,184.39523 149.39783,185.10751 144.46634,185.50048 C 139.53486,185.89345 132.3981,186.5041 128.6069,186.85748 L 121.71379,187.5 L 131.11994,194.16031 C 136.29332,197.82348 143.86389,202.79201 147.94343,205.20149 C 155.22932,209.5047 157.67931,212 154.61852,212 C 153.76703,212 152.5887,212.9 152,214 C 150.57202,216.6682 149.14973,216.52401 148.03736,213.59827 C 147.53513,212.27731 145.40877,209.93358 143.31211,208.38998 C 141.21545,206.84637 136.95301,203.31465 133.84002,200.54171 C 130.72703,197.76877 126.11453,194.04381 123.59002,192.26403 L 119,189.02806 L 118.98019,193.76403 C 118.95403,200.01845 117.16094,212.23906 116.11611,213.28389 C 114.18216,215.21784 112.89223,208.29752 113.71644,200.40997 C 114.67675,191.21987 114.41402,188.58732 112.68142,190.03944 C 109.54912,192.66469 102.18196,197.87519 99.5,199.36215 C 97.85,200.27696 95.617048,201.58222 94.537884,202.26272 C 89.594506,205.37994 84.20653,208.59374 81,210.33775 C 79.075,211.38475 77.134843,212.87153 76.68854,213.64172 C 76.242236,214.41191 75.505724,214.81255 75.051846,214.53204 C 74.597968,214.25153 73.670525,214.69207 72.990862,215.51101 C 71.763652,216.98971 68.844231,217.5109 67.775429,216.4421 z M 111.09878,169.44284 C 108.9713,165.83703 108.21479,159 109.9433,159 C 110.46211,159 111.58711,160.00013 112.4433,161.22251 C 113.29948,162.44488 114.03583,163.00738 114.07963,162.47251 C 114.12342,161.93763 114.26628,158.8 114.39708,155.5 C 114.52788,152.2 115.01028,148.66015 115.46908,147.63367 C 116.97015,144.27529 113.11284,147.21603 102,157.90223 C 96.225,163.45552 90.875785,167.88682 90.112856,167.74956 C 89.349927,167.6123 88.347961,166.47678 87.886266,165.22617 C 87.187486,163.33337 87.73339,162.28605 91.143991,158.97617 C 93.397436,156.78928 95.524402,154.98271 95.870582,154.96158 C 96.216762,154.94045 98.744213,152.94594 101.48714,150.52935 L 106.47428,146.13554 L 101.98714,146.29313 C 90.454368,146.69818 85.414173,146.03452 83.009575,143.79429 L 80.642027,141.58859 L 84.071013,140.1792 C 86.385459,139.22792 91.649703,138.75765 100.26694,138.73237 C 112.14722,138.69753 112.92853,138.57851 111.51694,137.01872 C 110.68262,136.09681 110,134.59045 110,133.67126 C 110,131.85727 112.4977,131.37824 113.5,133 C 114.81644,135.13005 118.69788,133.88903 122.10101,130.25 C 128.09218,123.84353 128.25099,123.475 125.1952,123.06948 C 123.71284,122.87277 121.15,122.78118 119.5,122.86596 C 106.10204,123.55436 88.58387,122.0828 90.257165,120.4095 C 90.988344,119.67832 112.42759,118.5 125,118.5 C 135.83137,118.5 136.51706,118.61919 136.79334,120.54997 C 137.06706,122.46287 133.55056,127.15366 125.73421,135.30212 L 122.96842,138.18542 L 137.63955,137.55572 C 145.70867,137.20939 152.72072,136.6726 153.22188,136.36287 C 154.3339,135.67561 156.92433,138.91367 156.9682,141.0458 C 156.98569,141.89599 155.15206,144.14599 152.89346,146.0458 C 150.63487,147.94561 146.88917,151.42881 144.5697,153.78624 C 141.65569,156.74795 139.83448,157.87372 138.67624,157.42926 C 136.57043,156.62118 136.50937,152.67843 138.55434,149.55742 C 140.60455,146.42839 139.24694,145.67975 133.24706,146.63078 C 130.63618,147.04463 126.83979,147.36958 124.81065,147.35291 C 121.33912,147.32437 121.08855,147.53446 120.56659,150.91129 C 120.2615,152.88508 119.78568,158.05212 119.50921,162.3936 C 119.23274,166.73508 118.49997,170.89758 117.88082,171.6436 C 115.93238,173.99133 113.27336,173.12848 111.09878,169.44284 z M 148.16297,98.401594 C 145.73304,96.699604 145.45467,94.451924 147.16148,90.3151 C 147.8003,88.766795 148.26718,87.213155 148.199,86.862566 C 148.13083,86.511978 148.53283,84.711978 149.09236,82.862566 C 149.65188,81.013155 150.29902,78.6 150.53046,77.5 C 150.7619,76.4 151.38237,73.475 151.90929,71 C 152.43621,68.525 152.93987,65.825 153.02853,65 C 153.17234,63.661874 153.84154,38.575081 153.95551,30.25 C 154.00375,26.726234 156.48698,25.628185 157.34775,28.75 C 157.89244,30.725454 157.31515,71.605337 156.66637,77.000366 C 155.88666,83.484244 153.78148,92.481008 152.42575,95.123216 C 151.68546,96.565985 151.31676,97.983424 151.60641,98.27308 C 152.96575,99.63242 150.07429,99.740333 148.16297,98.401594 z M 117.70885,98.375516 C 116.57784,97.244504 116.88287,94.057143 118.44808,90.651129 C 124.45293,77.584126 128.55148,56.569659 127.3455,45.031485 L 126.74889,39.323368 L 123.12444,39.60266 C 121.131,39.756271 117.59665,39.908513 115.27032,39.940976 C 111.36288,39.995503 110.8848,40.305491 108.99496,44.009882 L 106.94927,48.019763 L 109.22463,48.928527 C 110.47609,49.428347 112.32492,50.099136 113.33316,50.419171 C 114.34139,50.739205 114.97668,51.563315 114.74491,52.250526 C 114.36078,53.389453 113.47111,53.595431 107.61408,53.90146 C 105.96546,53.9876 105.80501,54.560774 106.33898,58.456492 C 106.67494,60.907562 106.59533,63.132063 106.16208,63.399827 C 105.49697,63.810887 105.35327,68.842115 105.86448,73.819551 C 105.94363,74.590256 106.93585,75.00619 108.25,74.819551 C 110.12042,74.553908 110.55187,73.783024 110.8075,70.25 C 111.15167,65.493131 112.14398,64.939771 114.4433,68.222506 C 116.47653,71.125348 116.69131,86 114.7,86 C 112.74549,86 111,83.8656 111,81.475618 C 111,79.48612 110.50793,79.355959 103.25,79.425618 C 98.9875,79.466528 94.375,79.275 93,79 C 90.347871,78.469574 90.17985,79.061877 91.581632,84 C 92.258141,86.383171 92.180964,86.359805 89.930127,83.5 C 88.631479,81.85 87.107427,80.181381 86.543345,79.791957 C 85.262494,78.9077 89.718917,65.321839 91.516029,64.632223 C 92.198173,64.37046 93.261125,64.661125 93.878145,65.278145 C 95.269519,66.669519 95.358311,72.660518 94,73.5 C 92.090928,74.679872 93.014946,76.000001 95.75,76.000195 L 98.5,76.000391 L 98.5,64.50047 L 98.5,53.000548 L 94.372445,53.000274 C 89.024626,52.999919 86.966346,50.837407 90.174834,48.590095 C 91.423432,47.715543 93.244885,47 94.222506,47 C 96.407952,47 96.460419,46.102352 94.443296,43.222506 C 93.034357,41.210965 93.034357,41 94.443296,41 C 96.17504,41 100,44.441752 100,46 C 100,46.55 100.7875,46.990392 101.75,46.978649 C 104.05014,46.950585 109.67689,39.159361 107.81852,38.575725 C 105.56353,37.867531 93.837738,36.722816 86.325959,36.477543 L 79.151919,36.243298 L 79.225811,61.371649 C 79.3026,87.485024 78.489737,94.554147 75.190204,96.467599 C 72.955036,97.763808 71.760515,97.81732 70.25,96.688908 C 68.840387,95.635873 68.539573,89.402594 69.859014,88.587134 C 70.665836,88.088491 71.141636,85.169707 72.807451,70.5 C 73.612498,63.410494 73.33169,35.332884 72.395086,29.268204 C 71.852588,25.755429 72.045534,24.919757 73.530671,24.349857 C 74.776784,23.871678 75.954158,24.443134 77.409898,26.232696 C 79.270406,28.519843 80.630253,28.922805 89.789219,29.901043 C 95.448289,30.505469 105.91079,31 113.03922,31 L 126,31 L 126,27.5 C 126,22.5641 128.7093,22.850366 130.73214,28 C 131.99655,31.218887 132.81077,32.006211 134.90169,32.031803 C 137.70119,32.066069 141,34.078282 141,35.751663 C 141,36.318811 139.27268,37.473975 137.16152,38.318695 L 133.32304,39.854549 L 133.51292,50.177275 C 133.83542,67.709959 132.45703,77.438997 128.43762,86 C 126.50092,90.125 124.29234,94.625 123.52967,96 C 122.15433,98.479552 119.07115,99.737818 117.70885,98.375516 z M 140.05187,72.562504 C 138.53165,70.730743 139.57123,45.383029 141.20807,44.371405 C 142.92102,43.312746 145.34896,46.790175 145.28387,50.208978 C 145.02183,63.972668 144.23494,71.193633 142.84573,72.582842 C 141.48902,73.939555 141.19294,73.937399 140.05187,72.562504 z "
     id="path2161" />
</svg>
